<?xml version="1.0" encoding="UTF-8"?>
<svg width="25px" height="10px" viewBox="0 0 25 10" version="1.1" xmlns="http://www.w3.org/2000/svg" xmlns:xlink="http://www.w3.org/1999/xlink">
    <!-- Generator: Sketch 47.1 (45422) - http://www.bohemiancoding.com/sketch -->
    <title>Battery</title>
    <desc>Created with Sketch.</desc>
    <defs></defs>
    <g id="Page-1" stroke="none" stroke-width="1" fill="none" fill-rule="evenodd">
        <g id="DEPARTURE-FLIGHT-" transform="translate(-339.000000, -11.000000)" fill="#FFFFFF">
            <g id="status_bar_white" transform="translate(12.000000, 9.000000)">
                <path d="M327,3.25 L327,3.25 C327,2.83578644 327.335786,2.5 327.75,2.5 L327.75,2.5 L348.75,2.5 C349.164214,2.5 349.5,2.83578644 349.5,3.25 L349.5,3.25 L349.5,11.25 C349.5,11.6642136 349.164214,12 348.75,12 L327.75,12 C327.335786,12 327,11.6642136 327,11.25 L327,3.25 Z M350,5.5 L351,5.5 C351.276142,5.5 351.5,5.72385763 351.5,6 L351.5,8.5 C351.5,8.77614237 351.276142,9 351,9 L350,9 L350,5.5 Z M327.5,3.5 L327.5,11 C327.5,11.2761424 327.723858,11.5 328,11.5 L348.5,11.5 L348.5,11.5 C348.776142,11.5 349,11.2761424 349,11 L349,3.5 L349,3.5 C349,3.22385763 348.776142,3 348.5,3 L328,3 L328,3 C327.723858,3 327.5,3.22385763 327.5,3.5 Z M328,3.75 C328,3.61192881 328.111929,3.5 328.25,3.5 L348.25,3.5 C348.388071,3.5 348.5,3.61192881 348.5,3.75 L348.5,10.75 C348.5,10.8880712 348.388071,11 348.25,11 L328.25,11 C328.111929,11 328,10.8880712 328,10.75 L328,3.75 Z" id="Battery"></path>
            </g>
        </g>
    </g>
</svg>