<?xml version="1.0" encoding="UTF-8"?>
<svg width="34px" height="6px" viewBox="0 0 34 6" version="1.1" xmlns="http://www.w3.org/2000/svg" xmlns:xlink="http://www.w3.org/1999/xlink">
    <!-- Generator: Sketch 47.1 (45422) - http://www.bohemiancoding.com/sketch -->
    <title>Mobile Signal</title>
    <desc>Created with Sketch.</desc>
    <defs></defs>
    <g id="Page-1" stroke="none" stroke-width="1" fill="none" fill-rule="evenodd">
        <g id="DEPARTURE-FLIGHT-" transform="translate(-12.000000, -13.000000)" fill="#FFFFFF">
            <g id="status_bar_white" transform="translate(12.000000, 9.000000)">
                <path d="M3.25,10 C1.73121694,10 0.5,8.76878306 0.5,7.25 C0.5,5.73121694 1.73121694,4.5 3.25,4.5 C4.76878306,4.5 6,5.73121694 6,7.25 C6,8.76878306 4.76878306,10 3.25,10 Z M10.25,10 C8.73121694,10 7.5,8.76878306 7.5,7.25 C7.5,5.73121694 8.73121694,4.5 10.25,4.5 C11.7687831,4.5 13,5.73121694 13,7.25 C13,8.76878306 11.7687831,10 10.25,10 Z M17.25,10 C15.7312169,10 14.5,8.76878306 14.5,7.25 C14.5,5.73121694 15.7312169,4.5 17.25,4.5 C18.7687831,4.5 20,5.73121694 20,7.25 C20,8.76878306 18.7687831,10 17.25,10 Z M24.25,10 C22.7312169,10 21.5,8.76878306 21.5,7.25 C21.5,5.73121694 22.7312169,4.5 24.25,4.5 C25.7687831,4.5 27,5.73121694 27,7.25 C27,8.76878306 25.7687831,10 24.25,10 Z M24.25,9.5 C25.4926407,9.5 26.5,8.49264069 26.5,7.25 C26.5,6.00735931 25.4926407,5 24.25,5 C23.0073593,5 22,6.00735931 22,7.25 C22,8.49264069 23.0073593,9.5 24.25,9.5 Z M31.25,10 C29.7312169,10 28.5,8.76878306 28.5,7.25 C28.5,5.73121694 29.7312169,4.5 31.25,4.5 C32.7687831,4.5 34,5.73121694 34,7.25 C34,8.76878306 32.7687831,10 31.25,10 Z M31.25,9.5 C32.4926407,9.5 33.5,8.49264069 33.5,7.25 C33.5,6.00735931 32.4926407,5 31.25,5 C30.0073593,5 29,6.00735931 29,7.25 C29,8.49264069 30.0073593,9.5 31.25,9.5 Z" id="Mobile-Signal"></path>
            </g>
        </g>
    </g>
</svg>