<?xml version="1.0" encoding="UTF-8"?>
<svg width="25px" height="19px" viewBox="0 0 25 19" version="1.1" xmlns="http://www.w3.org/2000/svg" xmlns:xlink="http://www.w3.org/1999/xlink">
    <!-- Generator: Sketch 47.1 (45422) - http://www.bohemiancoding.com/sketch -->
    <title>Fill 31</title>
    <desc>Created with Sketch.</desc>
    <defs></defs>
    <g id="Page-1" stroke="none" stroke-width="1" fill="none" fill-rule="evenodd">
        <g id="SUMMARY" transform="translate(-79.000000, -220.000000)" fill="#545454">
            <g id="Departure" transform="translate(19.000000, 219.000000)">
                <g id="Departure-titile" transform="translate(60.000000, 0.000000)">
                    <g id="calendar-icn" transform="translate(0.000000, 1.000000)">
                        <g id="Group-33">
                            <path d="M23.2326218,17.6560615 L1.71868421,17.6560615 C1.40279727,17.6560615 1.14577973,17.3984664 1.14577973,17.0818696 L1.14577973,2.98720497 C1.14577973,2.67060813 1.40279727,2.41301299 1.71868421,2.41301299 L5.50567251,2.41301299 L5.50567251,3.07619593 C5.50567251,3.39323235 5.76210526,3.65038792 6.078577,3.65038792 C6.395,3.65038792 6.65143275,3.3932812 6.65143275,3.07619593 L6.65143275,2.41301299 L9.77038986,2.41301299 L9.77038986,3.07619593 C9.77038986,3.39323235 10.0269201,3.65038792 10.3433431,3.65038792 C10.6597173,3.65038792 10.9162476,3.3932812 10.9162476,3.07619593 L10.9162476,2.41301299 L14.0351072,2.41301299 L14.0351072,3.07619593 C14.0351072,3.39323235 14.29154,3.65038792 14.607963,3.65038792 C14.9243372,3.65038792 15.1808674,3.3932812 15.1808674,3.07619593 L15.1808674,2.41301299 L18.2998246,2.41301299 L18.2998246,3.07619593 C18.2998246,3.39323235 18.5564035,3.65038792 18.8727778,3.65038792 C19.189152,3.65038792 19.4456823,3.3932812 19.4456823,3.07619593 L19.4456823,2.41301299 L23.2326706,2.41301299 C23.5485088,2.41301299 23.805575,2.67060813 23.805575,2.98720497 L23.805575,17.0818207 L23.8056238,17.0818207 C23.8055263,17.3984664 23.54846,17.6560615 23.2326218,17.6560615 M23.2326218,1.26472671 L19.4456335,1.26472671 L19.4456335,0.601494918 C19.4456335,0.284360813 19.1891033,0.0273029362 18.8726803,0.0273029362 C18.5564035,0.0273029362 18.2997758,0.284409656 18.2997758,0.601494918 L18.2997758,1.26472671 L15.1808187,1.26472671 L15.1808187,0.601494918 C15.1808187,0.284360813 14.9243372,0.0273029362 14.6079142,0.0273029362 C14.2914912,0.0273029362 14.0350585,0.284409656 14.0350585,0.601494918 L14.0350585,1.26472671 L10.9161988,1.26472671 L10.9161988,0.601494918 C10.9161988,0.284360813 10.6596686,0.0273029362 10.3432943,0.0273029362 C10.0268713,0.0273029362 9.77034113,0.284409656 9.77034113,0.601494918 L9.77034113,1.26472671 L6.65138402,1.26472671 L6.65138402,0.601494918 C6.65138402,0.284360813 6.39495127,0.0273029362 6.07852827,0.0273029362 C5.76205653,0.0273029362 5.50562378,0.284409656 5.50562378,0.601494918 L5.50562378,1.26472671 L1.71858674,1.26472671 C0.770974659,1.26472671 1.94931774e-05,2.03741446 1.94931774e-05,2.98720497 L1.94931774e-05,17.0818207 C1.94931774e-05,18.0316112 0.770974659,18.8043478 1.71868421,18.8043478 L23.2326706,18.8043478 C24.1802827,18.8043478 24.9513353,18.0316112 24.9513353,17.0818207 L24.9513353,2.98720497 C24.9512865,2.03741446 24.1801852,1.26472671 23.2326218,1.26472671" id="Fill-31"></path>
                        </g>
                    </g>
                </g>
            </g>
        </g>
    </g>
</svg>