<?xml version="1.0" encoding="UTF-8"?>
<svg width="12px" height="22px" viewBox="0 0 12 22" version="1.1" xmlns="http://www.w3.org/2000/svg" xmlns:xlink="http://www.w3.org/1999/xlink">
    <!-- Generator: Sketch 47.1 (45422) - http://www.bohemiancoding.com/sketch -->
    <title>previous icon</title>
    <desc>Created with Sketch.</desc>
    <defs></defs>
    <g id="Page-1" stroke="none" stroke-width="1" fill="none" fill-rule="evenodd">
        <g id="SUMMARY" transform="translate(-22.000000, -46.000000)" fill="#FFFFFF">
            <path d="M24.305084,57 L33.7204938,47.623339 C33.9007781,47.4439831 34,47.2051525 34,46.9508475 C34,46.6967288 33.9007781,46.4578983 33.7204938,46.2783559 C33.5402094,46.0988136 33.300392,46 33.0452232,46 C32.7898672,46 32.5502369,46.0988136 32.3699526,46.2783559 L22.2792722,56.3275085 C21.9069093,56.698339 21.9069093,57.301661 22.2792722,57.6724915 L32.3699526,67.7216441 C32.5526707,67.9036102 32.786123,68 33.0452232,68 C33.3043234,68 33.5377757,67.9036102 33.7204938,67.7216441 C33.9007781,67.5422881 34,67.3034576 34,67.0491525 C34,66.7950339 33.9007781,66.5562034 33.7204938,66.376661 L24.305084,57 Z" id="previous-icon"></path>
        </g>
    </g>
</svg>