<?xml version="1.0" encoding="UTF-8"?>
<svg width="12px" height="22px" viewBox="0 0 12 22" version="1.1" xmlns="http://www.w3.org/2000/svg" xmlns:xlink="http://www.w3.org/1999/xlink">
    <!-- Generator: Sketch 47.1 (45422) - http://www.bohemiancoding.com/sketch -->
    <title>previous icon</title>
    <desc>Created with Sketch.</desc>
    <defs></defs>
    <g id="Page-1" stroke="none" stroke-width="1" fill="none" fill-rule="evenodd">
        <g id="BOARDING-PASS-arrow" transform="translate(-24.000000, -45.000000)" fill="#FFFFFF">
            <path d="M26.305084,56 L35.7204938,46.623339 C35.9007781,46.4439831 36,46.2051525 36,45.9508475 C36,45.6967288 35.9007781,45.4578983 35.7204938,45.2783559 C35.5402094,45.0988136 35.300392,45 35.0452232,45 C34.7898672,45 34.5502369,45.0988136 34.3699526,45.2783559 L24.2792722,55.3275085 C23.9069093,55.698339 23.9069093,56.301661 24.2792722,56.6724915 L34.3699526,66.7216441 C34.5526707,66.9036102 34.786123,67 35.0452232,67 C35.3043234,67 35.5377757,66.9036102 35.7204938,66.7216441 C35.9007781,66.5422881 36,66.3034576 36,66.0491525 C36,65.7950339 35.9007781,65.5562034 35.7204938,65.376661 L26.305084,56 Z" id="previous-icon"></path>
        </g>
    </g>
</svg>