<?xml version="1.0" encoding="UTF-8"?>
<svg width="31px" height="18px" viewBox="0 0 31 18" version="1.1" xmlns="http://www.w3.org/2000/svg" xmlns:xlink="http://www.w3.org/1999/xlink">
    <!-- Generator: Sketch 48.2 (47327) - http://www.bohemiancoding.com/sketch -->
    <title>Untitled</title>
    <desc>Created with Sketch.</desc>
    <defs></defs>
    <g id="Page-1" stroke="none" stroke-width="1" fill="none" fill-rule="evenodd">
        <path d="M9.65372632,6.95305862 C9.24876842,6.95305862 8.91951579,6.63992069 8.91951579,6.25478276 L8.91951579,4.59940345 C8.91951579,4.21426552 9.24876842,3.90112759 9.65372632,3.90112759 C10.0586842,3.90112759 10.3879368,4.21426552 10.3879368,4.59940345 L10.3879368,6.25478276 C10.3879368,6.63992069 10.0586842,6.95305862 9.65372632,6.95305862 Z M9.65372632,10.6144448 C9.24876842,10.6144448 8.91951579,10.3013069 8.91951579,9.91616897 L8.91951579,8.26078966 C8.91951579,7.87565172 9.24876842,7.56251379 9.65372632,7.56251379 C10.0586842,7.56251379 10.3879368,7.87565172 10.3879368,8.26078966 L10.3879368,9.91616897 C10.3879368,10.3013069 10.0586842,10.6144448 9.65372632,10.6144448 Z M10.3879368,11.7373345 L10.3879368,13.3927138 C10.3879368,13.7775414 10.0586842,14.0909897 9.65372632,14.0909897 C9.24876842,14.0909897 8.91951579,13.7775414 8.91951579,13.3927138 L8.91951579,11.7373345 C8.91951579,11.3521966 9.24876842,11.0390586 9.65372632,11.0390586 C10.0586842,11.0390586 10.3879368,11.3521966 10.3879368,11.7373345 Z M9.62631579,14.8668517 C9.22135789,14.8668517 8.89210526,15.1803 8.89210526,15.5651276 L8.89210526,16.6035414 L1.46842105,16.6035414 L1.46842105,12.7521621 C3.13132632,12.2447483 4.28713684,10.7464034 4.28713684,9.08854138 C4.28713684,7.43067931 3.13132632,5.93233448 1.46842105,5.42492069 L1.46842105,1.57354138 L8.91951579,1.57354138 L8.91951579,2.53064483 C8.91951579,2.91578276 9.24876842,3.22892069 9.65372632,3.22892069 C10.0586842,3.22892069 10.3879368,2.91578276 10.3879368,2.53064483 L10.3879368,1.57354138 L29.3684211,1.57354138 L29.3684211,16.6035414 L10.3605263,16.6035414 L10.3605263,15.5651276 C10.3605263,15.1803 10.0312737,14.8668517 9.62631579,14.8668517 Z M30.1026316,0.176989655 L0.734210526,0.176989655 C0.329252632,0.176989655 0,0.490127586 0,0.875265517 L0,5.97671379 C0,6.31933448 0.268884211,6.61633448 0.625221053,6.66723103 C1.87566316,6.84598966 2.81871579,7.88688621 2.81871579,9.08885172 C2.81871579,10.2905069 1.87566316,11.3317138 0.625547368,11.5104724 C0.268884211,11.5604379 0,11.8571276 0,12.200369 L0,17.3018172 C0,17.6866448 0.329252632,18.0000931 0.734210526,18.0000931 L30.1026316,18.0000931 C30.5072632,18.0000931 30.8368421,17.6866448 30.8368421,17.3018172 L30.8368421,0.875265517 C30.8368421,0.490127586 30.5072632,0.176989655 30.1026316,0.176989655 Z" id="Fill-5" fill="#939393" fill-rule="nonzero"></path>
        <path d="M13.5,6.5 L19.5,6.5" id="Line" stroke="#979797" stroke-linecap="square"></path>
        <path d="M13.5,11.5 L25.5,11.5" id="Line-2" stroke="#979797" stroke-linecap="square"></path>
    </g>
</svg>