<?xml version="1.0" encoding="UTF-8"?>
<svg width="25px" height="29px" viewBox="0 0 25 29" version="1.1" xmlns="http://www.w3.org/2000/svg" xmlns:xlink="http://www.w3.org/1999/xlink">
    <!-- Generator: Sketch 47.1 (45422) - http://www.bohemiancoding.com/sketch -->
    <title>Shape</title>
    <desc>Created with Sketch.</desc>
    <defs></defs>
    <g id="Page-1" stroke="none" stroke-width="1" fill="none" fill-rule="evenodd">
        <g id="BOARDING-PASS-arrow" transform="translate(-169.000000, -138.000000)" fill="#FFFFFF">
            <g id="SFO-&gt;-BCN-" transform="translate(66.000000, 97.000000)">
                <path d="M124.233296,41.2492486 L127.218184,44.5700983 C127.46753,44.8475534 127.467357,45.2684298 127.217782,45.5456797 L123.935698,49.1895704 C123.763189,49.3901681 123.495583,49.4816275 123.236385,49.4285745 C122.977186,49.3755214 122.767035,49.1862745 122.687215,48.9340298 C122.607394,48.6817851 122.670419,48.4060943 122.851913,48.2135879 L125.025971,45.8000668 L109.873512,45.8000668 C106.088364,45.8000668 104.458564,48.0707771 104.458564,50.3105154 C104.458564,52.5502683 106.088364,54.8205519 109.873512,54.8205519 L120.675964,54.8205519 C125.075598,54.8205519 127.53928,57.7751574 127.542989,60.7628391 C127.546683,63.7505937 125.089502,66.7071685 120.701807,66.7071685 L105.483939,66.7071685 L107.374937,68.8109848 C107.549899,69.0046925 107.608016,69.2771269 107.527334,69.5253702 C107.446653,69.7736136 107.239471,69.9598228 106.984056,70.0136536 C106.728642,70.0674843 106.463931,69.9807305 106.289923,69.786165 L103.305035,66.4653153 C103.055792,66.187767 103.056123,65.7668906 103.305801,65.4897339 L106.587886,61.8458541 C106.76042,61.6453475 107.027984,61.5539609 107.287126,61.607028 C107.546268,61.660095 107.756373,61.8492984 107.836204,62.1014843 C107.916036,62.3536702 107.853083,62.6293125 107.671685,62.8218367 L105.48632,65.2482454 L120.701759,65.2482454 C124.467602,65.2482454 126.087168,62.9910099 126.084416,60.7648813 C126.081645,58.5387162 124.455662,56.279475 120.675915,56.279475 L109.873464,56.279475 C105.466344,56.279475 103,53.3104721 103,50.3105154 C103,47.3105478 105.466344,44.3411401 109.873473,44.3411401 L125.050961,44.3411401 L123.148256,42.2244288 C122.953132,42.0132393 122.90028,41.7071255 123.013292,41.4427342 C123.126303,41.1783429 123.384091,41.0050097 123.671581,41.0001092 C123.886388,40.9963965 124.091885,41.0875457 124.233296,41.2492486 Z" id="Shape"></path>
            </g>
        </g>
    </g>
</svg>