<?xml version="1.0" encoding="UTF-8"?>
<svg width="14px" height="10px" viewBox="0 0 14 10" version="1.1" xmlns="http://www.w3.org/2000/svg" xmlns:xlink="http://www.w3.org/1999/xlink">
    <!-- Generator: Sketch 47.1 (45422) - http://www.bohemiancoding.com/sketch -->
    <title>Wi-Fi</title>
    <desc>Created with Sketch.</desc>
    <defs></defs>
    <g id="Page-1" stroke="none" stroke-width="1" fill="none" fill-rule="evenodd">
        <g id="DEPARTURE-FLIGHT-" transform="translate(-75.000000, -11.000000)" fill="#FFFFFF">
            <g id="status_bar_white" transform="translate(12.000000, 9.000000)">
                <path d="M72.1444208,9.43850432 L70.0225391,11.5 L67.8601652,9.40531769 C68.3778594,8.83143413 69.1390073,8.46891192 69.987563,8.46891192 C70.8523616,8.46891192 71.626374,8.84544555 72.1444208,9.43850432 Z M74.3234964,7.32144245 L74.3234964,7.32144245 L73.2346215,8.37932931 C72.4356305,7.51823504 71.2768836,6.97668394 69.987563,6.97668394 C68.713648,6.97668394 67.567205,7.5053708 66.7692987,8.34859996 L65.6792698,7.29269359 C66.7566264,6.17975893 68.2882723,5.48445596 69.987563,5.48445596 C71.7014387,5.48445596 73.2447794,6.19174563 74.3234964,7.32144245 Z M76.5,5.20687933 L75.4118698,6.26404272 C74.0538809,4.86552609 72.1260026,3.99222798 69.987563,3.99222798 C67.8628921,3.99222798 65.9460798,4.85431655 64.5895579,6.23709441 L63.5,5.18164431 C65.1355496,3.52895605 67.4375103,2.5 69.987563,2.5 C72.5505699,2.5 74.8629578,3.53943672 76.5,5.20687933 Z" id="Wi-Fi"></path>
            </g>
        </g>
    </g>
</svg>