<?xml version="1.0" encoding="UTF-8"?>
<svg width="25px" height="29px" viewBox="0 0 25 29" version="1.1" xmlns="http://www.w3.org/2000/svg" xmlns:xlink="http://www.w3.org/1999/xlink">
    <!-- Generator: Sketch 47.1 (45422) - http://www.bohemiancoding.com/sketch -->
    <title>Shape</title>
    <desc>Created with Sketch.</desc>
    <defs></defs>
    <g id="Page-1" stroke="none" stroke-width="1" fill="none" fill-rule="evenodd">
        <g id="SUMMARY" transform="translate(-173.000000, -103.000000)" fill="#FFFFFF">
            <g id="Flight-title" transform="translate(22.000000, 89.000000)">
                <path d="M172.628674,14.2489966 L175.669142,17.5664887 C175.923132,17.8436632 175.922956,18.2641141 175.668733,18.5410837 L172.325534,22.1812902 C172.149813,22.3816851 171.877225,22.473052 171.613199,22.4200526 C171.349174,22.3670531 171.13511,22.1779976 171.053803,21.9260079 C170.972497,21.6740182 171.036695,21.3986062 171.221568,21.2062944 L173.436109,18.7952136 L158.001501,18.7952136 C154.145871,18.7952136 152.485723,21.063628 152.485723,23.3011018 C152.485723,25.5385902 154.145871,27.8065783 158.001501,27.8065783 L169.005102,27.8065783 C173.48666,27.8065783 175.996218,30.7581966 175.999996,33.7428575 C176.003759,36.7275912 173.500822,39.6811767 169.031426,39.6811767 L153.530192,39.6811767 L155.456401,41.7828659 C155.634621,41.9763778 155.69382,42.2485367 155.611636,42.496529 C155.529452,42.7445214 155.318413,42.9305424 155.058242,42.9843187 C154.798072,43.038095 154.528432,42.9514289 154.351184,42.7570602 L151.310715,39.4395681 C151.056831,39.1623004 151.057168,38.7418495 151.311496,38.464973 L154.654695,34.8247775 C154.830441,34.6244736 155.102987,34.5331794 155.366955,34.5861928 C155.630923,34.6392062 155.844939,34.8282182 155.926258,35.0801492 C156.007576,35.3320801 155.94345,35.6074437 155.758674,35.7997733 L153.532617,38.2237287 L169.031377,38.2237287 C172.867343,38.2237287 174.517067,35.9687754 174.514263,33.7448976 C174.51144,31.5209833 172.855181,29.2640264 169.005052,29.2640264 L158.001452,29.2640264 C153.512269,29.2640264 151,26.2980253 151,23.3011018 C151,20.3041674 153.512269,17.3377619 158.001462,17.3377619 L173.461564,17.3377619 L171.52343,15.2231909 C171.324673,15.0122148 171.270836,14.7064105 171.385952,14.4422866 C171.501068,14.1781626 171.763656,14.0050047 172.056499,14.0001091 C172.275306,13.9964001 172.48463,14.0874572 172.628674,14.2489966 Z" id="Shape"></path>
            </g>
        </g>
    </g>
</svg>