<?xml version="1.0" encoding="UTF-8"?>
<svg width="12px" height="23px" viewBox="0 0 12 23" version="1.1" xmlns="http://www.w3.org/2000/svg" xmlns:xlink="http://www.w3.org/1999/xlink">
    <!-- Generator: Sketch 47.1 (45422) - http://www.bohemiancoding.com/sketch -->
    <title>previous icon</title>
    <desc>Created with Sketch.</desc>
    <defs></defs>
    <g id="Page-1" stroke="none" stroke-width="1" fill="none" fill-rule="evenodd">
        <g id="DEPARTURE-FLIGHT-" transform="translate(-22.000000, -45.000000)" fill="#FFFFFF">
            <path d="M24.305084,56.7271758 L33.7204938,47.3117659 C33.9007781,47.1316688 34,46.8918514 34,46.6364954 C34,46.3813266 33.9007781,46.1415091 33.7204938,45.9612248 C33.5402094,45.7809405 33.300392,45.6817185 33.0452232,45.6817185 C32.7898672,45.6817185 32.5502369,45.7809405 32.3699526,45.9612248 L22.2792722,56.0519052 C21.9069093,56.4242681 21.9069093,57.0300834 22.2792722,57.4024463 L32.3699526,67.4931267 C32.5526707,67.6758448 32.786123,67.772633 33.0452232,67.772633 C33.3043234,67.772633 33.5377757,67.6758448 33.7204938,67.4931267 C33.9007781,67.3130296 34,67.0732121 34,66.8178561 C34,66.5626874 33.9007781,66.3228699 33.7204938,66.1425856 L24.305084,56.7271758 Z" id="previous-icon"></path>
        </g>
    </g>
</svg>