<?xml version="1.0" encoding="UTF-8"?>
<svg width="28px" height="28px" viewBox="0 0 28 28" version="1.1" xmlns="http://www.w3.org/2000/svg" xmlns:xlink="http://www.w3.org/1999/xlink">
    <!-- Generator: Sketch 47.1 (45422) - http://www.bohemiancoding.com/sketch -->
    <title>plane icon</title>
    <desc>Created with Sketch.</desc>
    <defs></defs>
    <g id="Page-1" stroke="none" stroke-width="1" fill="none" fill-rule="evenodd">
        <g id="SEARCH-FLIGHTS---round-trip" transform="translate(-43.000000, -610.000000)" fill="#7B54A6">
            <g id="Bottom-menu" transform="translate(1.000000, 598.000000)">
                <g id="search-tab" transform="translate(39.000000, 12.000000)">
                    <path d="M28.7603366,16.66 C28.0133155,17.36 26.9872697,17.7333333 25.9607573,17.64 L20.4082584,16.94 L15.2756964,16.2866667 L8.7433448,15.4466667 L5.19721106,15.0266667 C5.15055141,15.0266667 5.10389175,14.98 5.0572321,14.98 L4.91725313,14.98 C4.40399693,14.9333333 4.0307197,14.5133333 4.0307197,14 C4.0307197,13.4866667 4.40399693,13.1133333 4.91725313,13.02 L5.0572321,13.02 C5.10389175,13.02 5.15055141,13.02 5.19721106,12.9733333 L8.7433448,12.5533333 L15.2756964,11.7133333 L20.4082584,11.06 L25.9607573,10.36 C26.9872697,10.2666667 28.0133155,10.64 28.7603366,11.34 C29.5068911,12.04 29.9268279,12.9733333 29.9268279,14 C29.9268279,15.0266667 29.5068911,15.96 28.7603366,16.66 L28.7603366,16.66 Z M14.2025244,26.9266667 L11.3562855,26.9266667 L15.5089947,17.4066667 L19.4284057,17.92 L14.2025244,26.9266667 Z M6.87695862,18.1533333 L4.35733728,18.1533333 L5.19721106,16.1 L7.81015171,16.4266667 L6.87695862,18.1533333 Z M6.87695862,9.84666667 L7.81015171,11.5733333 L5.19721106,11.9 L4.35733728,9.84666667 L6.87695862,9.84666667 Z M11.3562855,1.07333333 L14.2025244,1.07333333 L19.4750653,10.1266667 L15.5556544,10.64 L11.3562855,1.07333333 Z M29.5068911,10.5466667 C28.5270383,9.66 27.220568,9.19333333 25.867438,9.28666667 L25.8207784,9.28666667 L20.594897,9.94 L14.9957385,0.28 C14.9024192,0.0933333333 14.7157806,0 14.529142,0 L10.5630713,0 C10.3764327,0 10.1897941,0.0933333333 10.0964748,0.233333333 C10.0031555,0.373333333 10.0031555,0.56 10.0498151,0.746666667 L14.4358227,10.7333333 L8.97664307,11.4333333 L7.67017275,9.05333333 C7.57685344,8.86666667 7.39021482,8.77333333 7.2035762,8.77333333 L3.56412315,8.77333333 C3.37748453,8.77333333 3.23750557,8.86666667 3.09752661,9.00666667 C3.0042073,9.14666667 2.95754764,9.33333333 3.05086695,9.52 L4.12403901,12.18 C3.47080384,12.5066667 3.0042073,13.2066667 3.0042073,14 C3.0042073,14.7933333 3.47080384,15.4933333 4.12403901,15.82 L3.05086695,18.48 C3.0042073,18.6666667 3.0042073,18.8533333 3.09752661,18.9933333 C3.19084592,19.1333333 3.37748453,19.2266667 3.56412315,19.2266667 L7.2035762,19.2266667 C7.39021482,19.2266667 7.57685344,19.1333333 7.67017275,18.9466667 L8.97664307,16.5666667 L14.4358227,17.2666667 L10.0498151,27.2533333 C9.95649582,27.44 10.0031555,27.6266667 10.0964748,27.7666667 C10.1897941,27.9066667 10.3764327,28 10.5630713,28 L14.529142,28 C14.7157806,28 14.9024192,27.9066667 14.9957385,27.72 L20.6415567,18.0133333 L25.8207784,18.6666667 L25.867438,18.6666667 C27.220568,18.76 28.5270383,18.2933333 29.5068911,17.4066667 C30.4867438,16.52 31,15.3066667 31,13.9533333 C31,12.6 30.4867438,11.48 29.5068911,10.5466667 L29.5068911,10.5466667 Z" id="plane-icon"></path>
                </g>
            </g>
        </g>
    </g>
</svg>